<?xml version="1.0" encoding="UTF-8"?>
<svg id="Ebene_1" xmlns="http://www.w3.org/2000/svg" viewBox="0 0 873.6 479.3">
  <defs>
    <style>
      .cls-1 {
        font-family: Raleway-ExtraBold, Raleway;
        font-weight: 700;
      }

      .cls-1, .cls-2, .cls-3 {
        fill: #c50b7f;
      }

      .cls-1, .cls-3 {
        font-size: 148px;
      }

      .cls-4 {
        fill: #6a843f;
      }

      .cls-5 {
        letter-spacing: 0em;
      }

      .cls-6 {
        fill: #aece66;
      }

      .cls-7 {
        letter-spacing: 0em;
      }

      .cls-8 {
        fill: #e570a8;
      }

      .cls-9 {
        letter-spacing: -.03em;
      }

      .cls-10 {
        letter-spacing: 0em;
      }

      .cls-11 {
        letter-spacing: -.03em;
      }

      .cls-3 {
        font-family: Raleway-Medium, Raleway;
        font-weight: 500;
      }
    </style>
  </defs>
  <path class="cls-4" d="M174.6,0H25.8C11.55,0,0,11.55,0,25.8v148.8C0,188.85,11.55,200.4,25.8,200.4h148.8c14.25,0,25.8-11.55,25.8-25.8V25.8c0-14.25-11.55-25.8-25.8-25.8ZM175.91,63.04l-90.29,90.29c-4.41,4.41-11.57,4.41-15.98,0l-45.14-45.14c-4.41-4.41-4.41-11.57,0-15.98s11.57-4.41,15.98,0l37.17,37.14,82.32-82.28c4.41-4.41,11.57-4.41,15.98,0h-.04c4.41,4.41,4.41,11.57,0,15.98Z"/>
  <g>
    <path class="cls-2" d="M305.5,145.56c-14.47,0-27.93-2.24-37.99-6.06-1.73-.66-3.4-1.37-4.98-2.15v12.98s0,.15.18.45c.18.36.6.93,1.4,1.64,1.64,1.49,4.45,3.16,8.51,4.69,8.06,3.07,19.7,5.13,32.89,5.13s24.83-2.06,32.89-5.13c4.06-1.55,6.86-3.22,8.51-4.69.81-.72,1.22-1.28,1.4-1.64.18-.33.18-.45.18-.45v-13.01c-1.58.78-3.25,1.49-4.98,2.15-10.06,3.85-23.52,6.09-37.99,6.09Z"/>
    <path class="cls-2" d="M346.89,86.17c-1.64-1.49-4.45-3.16-8.51-4.69-8.06-3.07-19.7-5.13-32.89-5.13s-24.83,2.06-32.89,5.13c-4.06,1.55-6.86,3.22-8.51,4.69-.81.72-1.22,1.28-1.4,1.64-.18.33-.18.45-.18.45h0s.03.18.18.45c.18.36.6.93,1.4,1.64,1.64,1.49,4.45,3.16,8.51,4.69,8.06,3.07,19.7,5.13,32.89,5.13s24.83-2.06,32.89-5.13c4.06-1.55,6.86-3.22,8.51-4.69.81-.72,1.22-1.28,1.4-1.64.15-.27.18-.42.18-.45,0,0,0-.15-.18-.45-.18-.36-.6-.93-1.4-1.64Z"/>
    <path class="cls-2" d="M305.5,114.52c-14.47,0-27.93-2.24-37.99-6.06-1.73-.66-3.4-1.37-4.98-2.15v12.98s.03.18.18.45c.18.36.6.93,1.4,1.64,1.64,1.49,4.45,3.16,8.51,4.69,8.06,3.07,19.7,5.13,32.89,5.13s24.83-2.06,32.89-5.13c4.06-1.55,6.86-3.22,8.51-4.69.81-.72,1.22-1.28,1.4-1.64.15-.27.18-.42.18-.45v-13.01c-1.58.78-3.25,1.49-4.98,2.15-10.06,3.85-23.52,6.09-37.99,6.09Z"/>
    <path class="cls-2" d="M399,0h-148.8c-14.25,0-25.8,11.55-25.8,25.8v148.8c0,14.25,11.55,25.8,25.8,25.8h148.8c14.25,0,25.8-11.55,25.8-25.8V25.8c0-14.25-11.55-25.8-25.8-25.8ZM362.8,119.3v31.04c0,5.37-2.89,9.67-6.3,12.74-3.4,3.07-7.97,5.52-12.98,7.43-10.09,3.85-23.55,6.09-38.02,6.09s-27.93-2.24-37.99-6.06c-5.01-1.91-9.55-4.36-12.98-7.43-3.43-3.07-6.33-7.4-6.33-12.77v-62.08c0-5.37,2.89-9.67,6.3-12.74,3.4-3.07,7.97-5.52,12.98-7.43,10.09-3.85,23.55-6.09,38.02-6.09s27.93,2.24,37.99,6.06c5.01,1.91,9.58,4.36,12.98,7.43,3.4,3.07,6.33,7.4,6.33,12.77v31.04ZM401,81.1v31.04c0,5.37-2.89,9.67-6.3,12.74-3.4,3.07-7.97,5.52-12.98,7.43-2.86,1.1-6,2.06-9.34,2.86v-14.83c1.52-.45,2.92-.93,4.24-1.43,4.06-1.55,6.86-3.22,8.51-4.69.81-.72,1.22-1.28,1.4-1.64.18-.33.18-.45.18-.45v-13.01c-1.58.78-3.25,1.49-4.98,2.15-2.86,1.1-6,2.06-9.34,2.86v-14.83c1.52-.45,2.92-.93,4.24-1.43,4.06-1.55,6.86-3.22,8.51-4.69.81-.72,1.22-1.28,1.4-1.64.15-.27.18-.42.18-.45v-13.01c-1.58.78-3.25,1.49-4.98,2.15-4.09,1.55-8.77,2.86-13.82,3.85-1.52-2.24-3.28-4.15-5.01-5.7-3.01-2.72-6.51-4.92-10.15-6.74,9.46-.69,17.7-2.45,23.88-4.8,4.06-1.55,6.86-3.22,8.51-4.69.81-.72,1.22-1.28,1.4-1.64.15-.27.18-.42.18-.45,0,0,0-.15-.18-.45-.18-.36-.6-.93-1.4-1.64-1.64-1.49-4.45-3.16-8.51-4.69-8.09-3.1-19.73-5.16-32.92-5.16s-24.83,2.06-32.89,5.13c-4.06,1.55-6.86,3.22-8.51,4.69-.81.72-1.22,1.28-1.4,1.64-.18.33-.18.45-.18.45v.03s.03.18.18.45c.18.36.6.93,1.4,1.64.12.09.24.21.36.3-5.58.12-11.01.51-16.24,1.22l-.03-3.61c0-5.37,2.89-9.67,6.3-12.74,3.4-3.07,7.97-5.52,12.98-7.43,10.09-3.85,23.55-6.09,38.02-6.09s27.93,2.24,37.99,6.06c5.01,1.91,9.58,4.36,12.98,7.43,3.4,3.07,6.33,7.4,6.33,12.77v31.04Z"/>
  </g>
  <g>
    <circle class="cls-6" cx="535.8" cy="86.99" r="39.6" transform="translate(95.42 404.35) rotate(-45)"/>
    <path class="cls-6" d="M623.4,0h-148.8c-14.25,0-25.8,11.55-25.8,25.8v148.8c0,14.25,11.55,25.8,25.8,25.8h148.8c14.25,0,25.8-11.55,25.8-25.8V25.8c0-14.25-11.55-25.8-25.8-25.8ZM616.82,168.03c-3.44,3.44-9.02,3.44-12.46,0l-34.81-34.84c-9.46,6.93-21.12,11-33.74,11-31.6,0-57.2-25.6-57.2-57.2s25.6-57.2,57.2-57.2,57.2,25.6,57.2,57.2c0,12.62-4.1,24.28-11,33.74l34.81,34.84c3.44,3.44,3.44,9.02,0,12.46Z"/>
  </g>
  <g>
    <path class="cls-8" d="M847.8,0h-148.8c-14.25,0-25.8,11.55-25.8,25.8v148.8c0,14.25,11.55,25.8,25.8,25.8h148.8c14.25,0,25.8-11.55,25.8-25.8V25.8c0-14.25-11.55-25.8-25.8-25.8ZM836.86,83.35l-4.98,9.96c-2.28,4.52-3.89,9.33-4.85,14.31l-10.26,53.3c-1.48,7.65-8.15,13.16-15.93,13.16-7.29,0-13.69-4.85-15.63-11.87l-9.4-33.81c-.3-1.09-1.29-1.81-2.41-1.81s-2.11.76-2.41,1.81l-9.37,33.81c-1.95,7.02-8.34,11.87-15.63,11.87-7.78,0-14.48-5.51-15.93-13.16l-10.29-53.3c-.96-4.98-2.57-9.8-4.85-14.31l-5.64-11.31c-2.94-5.87-4.49-12.37-4.49-18.96,0-20.28,16.42-36.71,36.71-36.71h.89c8.15,0,16.06,2.64,22.56,7.52l2.64,1.98,5.47,4.09v.03l4.98-4.29c7.02-6.04,15.96-9.33,25.23-9.33h3.53c19.43,0,35.19,15.76,35.19,35.19,0,7.59-1.78,15.07-5.15,21.83Z"/>
    <path class="cls-8" d="M806.84,42.12h-3.53c-5.51.03-10.78,1.98-14.94,5.54l-2.31,1.98,2.67,1.98c3.5,2.64,4.22,7.59,1.58,11.08-2.64,3.5-7.59,4.22-11.08,1.58l-10.55-7.92-10.55-7.92-2.64-1.98c-3.79-2.8-8.38-4.32-13.09-4.32h-.89c-11.54,0-20.88,9.33-20.88,20.88,0,4.12.96,8.21,2.8,11.91l5.64,11.28c2.9,5.84,5.01,12.01,6.23,18.4l10.26,53.3c.03.2.2.33.4.33.16,0,.33-.13.4-.3l9.37-33.77c2.21-7.95,9.43-13.42,17.68-13.42s15.47,5.47,17.64,13.42l9.4,33.77c.03.16.2.3.4.3s.36-.13.4-.33l10.26-53.3c1.22-6.4,3.33-12.6,6.23-18.4l4.98-9.96c2.28-4.58,3.5-9.63,3.5-14.78,0-10.69-8.67-19.36-19.36-19.36Z"/>
  </g>
  <text class="cls-3" transform="translate(0 446)"><tspan x="0" y="0">de</tspan><tspan class="cls-7" x="180.56" y="0">n</tspan><tspan class="cls-5" x="267.14" y="0">ta</tspan><tspan class="cls-11" x="401.22" y="0">l</tspan></text>
  <text class="cls-1" transform="translate(0 327.2)"><tspan x="0" y="0">ab</tspan><tspan class="cls-9" x="181.45" y="0">r</tspan><tspan class="cls-10" x="236.8" y="0">echnung</tspan></text>
</svg>