<svg height="36" viewBox="0 0 36 36" width="36" xmlns="http://www.w3.org/2000/svg"><path d="m36,3v19.5c0,1.66-1.34,3-3,3H12.62l1.94,1.94c.59.59.59,1.54,0,2.12-.59.59-1.54.59-2.12,0l-4.5-4.5c-.59-.59-.59-1.54,0-2.12,0,0,0,0,0,0l4.5-4.5c.59-.59,1.54-.59,2.12,0,.59.59.59,1.54,0,2.12l-1.94,1.94h20.38V3H12v1.5c0,.83-.67,1.5-1.5,1.5s-1.5-.67-1.5-1.5v-1.5c0-1.66,1.34-3,3-3h21c1.66,0,3,1.34,3,3Zm-10.5,27c-.83,0-1.5.67-1.5,1.5v1.5H3V13.5h20.38l-1.94,1.94c-.59.59-.59,1.54,0,2.12.59.59,1.54.59,2.12,0l4.5-4.5c.59-.59.59-1.54,0-2.12,0,0,0,0,0,0l-4.5-4.5c-.59-.59-1.54-.59-2.12,0-.59.59-.59,1.54,0,2.12l1.94,1.94H3c-1.66,0-3,1.34-3,3v19.5c0,1.66,1.34,3,3,3h21c1.66,0,3-1.34,3-3v-1.5c0-.83-.67-1.5-1.5-1.5Z" fill="#55565b"/></svg>
